<svg
    xmlns="http://www.w3.org/2000/svg"
    viewBox="0 0 64 64"
    class="statistic-icons-defs"
    xmlns:xlink="http://www.w3.org/1999/xlink"
    data-queryselectoralways-ignore=""
>
    <!-- Agility -->
    <defs>
        <g xmlns="http://www.w3.org/2000/svg" id="agility">
            <path
                d="M57.355 42.637A27.245 27.245 0 0059.501 32c0-3.685-.724-7.262-2.146-10.637V6.756H42.794a27.168 27.168 0 00-10.683-2.172c-3.702 0-7.295.733-10.683 2.172H6.867v14.606A27.256 27.256 0 004.722 32c0 3.687.724 7.264 2.145 10.637v14.607h14.561a27.19 27.19 0 0010.683 2.173c3.701 0 7.294-.734 10.683-2.173h14.561V42.637zm-1.5-34.381v10.068a27.462 27.462 0 00-1.021-1.636c-.065-.098-.138-.19-.204-.286a27.278 27.278 0 00-1.188-1.591c-.13-.161-.26-.322-.393-.481a27.235 27.235 0 00-1.545-1.704 27.292 27.292 0 00-2.174-1.94 27.119 27.119 0 00-1.573-1.182c-.102-.071-.2-.147-.303-.217a27.755 27.755 0 00-1.642-1.031h10.043zm-47.488 0h10.042c-.562.324-1.108.67-1.643 1.032-.102.069-.199.145-.3.215-.541.376-1.066.772-1.577 1.185a27.331 27.331 0 00-2.173 1.939l-.017.018a27.115 27.115 0 00-1.919 2.164 26.908 26.908 0 00-1.19 1.593c-.066.096-.138.188-.203.285-.358.533-.7 1.077-1.021 1.636V8.256zm0 47.488V45.676c.321.56.664 1.105 1.022 1.638.064.096.135.186.2.281a27.14 27.14 0 001.581 2.072c.494.587 1.002 1.16 1.543 1.702l.002.002a27.154 27.154 0 002.173 1.94c.512.414 1.037.81 1.579 1.187.101.07.197.146.299.215.535.361 1.081.707 1.642 1.031H8.367zm13.502.062A25.834 25.834 0 018.306 42.2 25.768 25.768 0 016.222 32c0-3.538.701-6.969 2.084-10.199A25.836 25.836 0 0121.869 8.194a25.696 25.696 0 0110.242-2.111c3.553 0 6.998.71 10.242 2.111A25.838 25.838 0 0155.916 21.8 25.769 25.769 0 0158.001 32c0 3.536-.701 6.968-2.085 10.199a25.828 25.828 0 01-13.563 13.606 25.693 25.693 0 01-10.242 2.111 25.679 25.679 0 01-10.242-2.11zm33.986-.062H45.813c.562-.324 1.108-.67 1.642-1.031.103-.069.2-.146.302-.216a27.52 27.52 0 001.571-1.181c.163-.132.325-.263.484-.398a27.704 27.704 0 001.69-1.541l.035-.038a26.998 26.998 0 001.907-2.152c.412-.513.807-1.04 1.182-1.583.068-.098.141-.192.208-.292.357-.532.699-1.076 1.02-1.635v10.067z"
            ></path>
            <path
                d="M46.804 34.219c.179 3.128-6.415 10.197-7.82 4.58-.414-1.655.806-3.86 1.905-5.034.877-.937 3.26-2.676 4.614-2.312.515.139 1.057.698 1.159 1.126l.142 1.64zm-8.215-1.839c-4.919-.719-1.104-7.935 1.369-9.446 2.494-1.524 5.354.637 4.918 3.456-.325 2.104-3.862 6.345-6.287 5.99zm-1.392-13.102c1.996 2.27-2.691 9.045-5.34 8.312-4.923-1.363-.48-8.416 1.495-9.475.671-.36 1.341-.582 2.183-.27l1.662 1.433zm-15.139 9.51c-2.339-2.141.838-8.034 3.039-9.299 3.92-2.253 3.392 5.612 2.012 7.496-.858 1.172-2.537 2.562-3.989 2.618l-1.062-.815zm14.093 12.24c-.003.132.003.234.019.295.493 1.816 1.522 3.409-.036 5.133-1.427 1.579-4.028 1.509-5.731.345-1.638-1.12-2.027-3.49-3.449-4.853-1.705-1.634-3.554-1.703-5.701-2.009-2.349-.335-3.406-2.041-3.771-4.325-.376-2.355.885-3.062 3.061-3.379 1.45-.211 2.958-.352 4.245-1.081 2.406-1.364 2.797-3.668 5.762-1.705 1.754 1.161 3.994 2.469 5.233 4.215.733 1.033 1.435 1.805 1.283 2.982-.187 1.461-.875 2.806-.915 4.382z"
            ></path>
        </g>
    </defs>

    <!-- Intellect -->
    <defs>
        <g xmlns="http://www.w3.org/2000/svg" id="intellect">
            <path
                d="M57.355 42.637A27.245 27.245 0 0059.501 32c0-3.685-.724-7.262-2.146-10.637V6.756H42.794a27.168 27.168 0 00-10.683-2.172c-3.702 0-7.295.733-10.683 2.172H6.867v14.606A27.256 27.256 0 004.722 32c0 3.687.724 7.264 2.145 10.637v14.607h14.561a27.19 27.19 0 0010.683 2.173c3.701 0 7.294-.734 10.683-2.173h14.561V42.637zm-1.5-34.381v10.068a27.462 27.462 0 00-1.021-1.636c-.065-.098-.138-.19-.204-.286a27.278 27.278 0 00-1.188-1.591c-.13-.161-.26-.322-.393-.481a27.235 27.235 0 00-1.545-1.704 27.292 27.292 0 00-2.174-1.94 27.119 27.119 0 00-1.573-1.182c-.102-.071-.2-.147-.303-.217a27.755 27.755 0 00-1.642-1.031h10.043zm-47.488 0h10.042c-.562.324-1.108.67-1.643 1.032-.102.069-.199.145-.3.215-.541.376-1.066.772-1.577 1.185a27.331 27.331 0 00-2.173 1.939l-.017.018a27.115 27.115 0 00-1.919 2.164 26.908 26.908 0 00-1.19 1.593c-.066.096-.138.188-.203.285-.358.533-.7 1.077-1.021 1.636V8.256zm0 47.488V45.676c.321.56.664 1.105 1.022 1.638.064.096.135.186.2.281a27.14 27.14 0 001.581 2.072c.494.587 1.002 1.16 1.543 1.702l.002.002a27.154 27.154 0 002.173 1.94c.512.414 1.037.81 1.579 1.187.101.07.197.146.299.215.535.361 1.081.707 1.642 1.031H8.367zm13.502.062A25.834 25.834 0 018.306 42.2 25.768 25.768 0 016.222 32c0-3.538.701-6.969 2.084-10.199A25.836 25.836 0 0121.869 8.194a25.696 25.696 0 0110.242-2.111c3.553 0 6.998.71 10.242 2.111A25.838 25.838 0 0155.916 21.8 25.769 25.769 0 0158.001 32c0 3.536-.701 6.968-2.085 10.199a25.828 25.828 0 01-13.563 13.606 25.693 25.693 0 01-10.242 2.111 25.679 25.679 0 01-10.242-2.11zm33.986-.062H45.813c.562-.324 1.108-.67 1.642-1.031.103-.069.2-.146.302-.216a27.52 27.52 0 001.571-1.181c.163-.132.325-.263.484-.398a27.704 27.704 0 001.69-1.541l.035-.038a26.998 26.998 0 001.907-2.152c.412-.513.807-1.04 1.182-1.583.068-.098.141-.192.208-.292.357-.532.699-1.076 1.02-1.635v10.067z"
            ></path>
            <path
                d="M28.832 44.802h6.559v-1.101h-6.559v1.101zm1.078 2.202h4.402v-1.101H29.91v1.101zm2.246-28.625h-.09c-1.078 0-9.704.127-9.704 11.01 0 2.696 1.5 4.496 2.949 6.234 1.255 1.507 2.442 2.928 2.442 4.776V42.6h8.715v-2.202c0-1.848 1.187-3.269 2.442-4.776 1.449-1.737 2.949-3.537 2.949-6.234.001-10.882-8.624-11.009-9.703-11.009z"
            ></path>
        </g>
    </defs>

    <!-- Strength -->
    <defs>
        <g xmlns="http://www.w3.org/2000/svg" id="strength">
            <path
                d="M57.355 42.637A27.245 27.245 0 0059.501 32c0-3.685-.724-7.262-2.146-10.637V6.756H42.794a27.168 27.168 0 00-10.683-2.172c-3.702 0-7.295.733-10.683 2.172H6.867v14.606A27.256 27.256 0 004.722 32c0 3.687.724 7.264 2.145 10.637v14.607h14.561a27.19 27.19 0 0010.683 2.173c3.701 0 7.294-.734 10.683-2.173h14.561V42.637zm-1.5-34.381v10.068a27.462 27.462 0 00-1.021-1.636c-.065-.098-.138-.19-.204-.286a27.278 27.278 0 00-1.188-1.591c-.13-.161-.26-.322-.393-.481a27.235 27.235 0 00-1.545-1.704 27.292 27.292 0 00-2.174-1.94 27.119 27.119 0 00-1.573-1.182c-.102-.071-.2-.147-.303-.217a27.755 27.755 0 00-1.642-1.031h10.043zm-47.488 0h10.042c-.562.324-1.108.67-1.643 1.032-.102.069-.199.145-.3.215-.541.376-1.066.772-1.577 1.185a27.331 27.331 0 00-2.173 1.939l-.017.018a27.115 27.115 0 00-1.919 2.164 26.908 26.908 0 00-1.19 1.593c-.066.096-.138.188-.203.285-.358.533-.7 1.077-1.021 1.636V8.256zm0 47.488V45.676c.321.56.664 1.105 1.022 1.638.064.096.135.186.2.281a27.14 27.14 0 001.581 2.072c.494.587 1.002 1.16 1.543 1.702l.002.002a27.154 27.154 0 002.173 1.94c.512.414 1.037.81 1.579 1.187.101.07.197.146.299.215.535.361 1.081.707 1.642 1.031H8.367zm13.502.062A25.834 25.834 0 018.306 42.2 25.768 25.768 0 016.222 32c0-3.538.701-6.969 2.084-10.199A25.836 25.836 0 0121.869 8.194a25.696 25.696 0 0110.242-2.111c3.553 0 6.998.71 10.242 2.111A25.838 25.838 0 0155.916 21.8 25.769 25.769 0 0158.001 32c0 3.536-.701 6.968-2.085 10.199a25.828 25.828 0 01-13.563 13.606 25.693 25.693 0 01-10.242 2.111 25.679 25.679 0 01-10.242-2.11zm33.986-.062H45.813c.562-.324 1.108-.67 1.642-1.031.103-.069.2-.146.302-.216a27.52 27.52 0 001.571-1.181c.163-.132.325-.263.484-.398a27.704 27.704 0 001.69-1.541l.035-.038a26.998 26.998 0 001.907-2.152c.412-.513.807-1.04 1.182-1.583.068-.098.141-.192.208-.292.357-.532.699-1.076 1.02-1.635v10.067z"
            ></path>
            <path
                d="M49.771 31.52H47.57v-6.691c0-.821-.672-1.492-1.492-1.492-.821 0-1.492.672-1.492 1.492 0-.821-.672-1.492-1.492-1.492s-1.494.671-1.494 1.491c0-.821-.672-1.492-1.492-1.492s-1.492.672-1.492 1.492v6.691H25.608v-6.691c0-.821-.672-1.492-1.492-1.492s-1.492.672-1.492 1.492c0-.821-.672-1.492-1.492-1.492s-1.492.672-1.492 1.492c0-.821-.672-1.492-1.492-1.492-.821 0-1.492.672-1.492 1.492v6.691h-2.201v2.154h2.201v6.691c0 .821.672 1.492 1.492 1.492.821 0 1.492-.672 1.492-1.492 0 .821.672 1.492 1.492 1.492s1.492-.672 1.492-1.492c0 .821.672 1.492 1.492 1.492s1.492-.672 1.492-1.492v-6.691h13.007v6.691c0 .821.672 1.492 1.492 1.492s1.492-.672 1.492-1.492c0 .821.672 1.492 1.492 1.492s1.492-.672 1.492-1.492c0 .821.672 1.492 1.492 1.492.821 0 1.492-.672 1.492-1.492v-6.691h2.201V31.52z"
            ></path>
        </g>
    </defs>

    <!-- Mastery -->
    <defs>
        <g xmlns="http://www.w3.org/2000/svg" id="mastery">
            <path
                d="M57.355 42.637A27.245 27.245 0 0059.501 32c0-3.685-.724-7.262-2.146-10.637V6.756H42.794a27.168 27.168 0 00-10.683-2.172c-3.702 0-7.295.733-10.683 2.172H6.867v14.606A27.256 27.256 0 004.722 32c0 3.687.724 7.264 2.145 10.637v14.607h14.561a27.19 27.19 0 0010.683 2.173c3.701 0 7.294-.734 10.683-2.173h14.561V42.637zm-1.5-34.381v10.068a27.462 27.462 0 00-1.021-1.636c-.065-.098-.138-.19-.204-.286a27.278 27.278 0 00-1.188-1.591c-.13-.161-.26-.322-.393-.481a27.235 27.235 0 00-1.545-1.704 27.292 27.292 0 00-2.174-1.94 27.119 27.119 0 00-1.573-1.182c-.102-.071-.2-.147-.303-.217a27.755 27.755 0 00-1.642-1.031h10.043zm-47.488 0h10.042c-.562.324-1.108.67-1.643 1.032-.102.069-.199.145-.3.215-.541.376-1.066.772-1.577 1.185a27.331 27.331 0 00-2.173 1.939l-.017.018a27.115 27.115 0 00-1.919 2.164 26.908 26.908 0 00-1.19 1.593c-.066.096-.138.188-.203.285-.358.533-.7 1.077-1.021 1.636V8.256zm0 47.488V45.676c.321.56.664 1.105 1.022 1.638.064.096.135.186.2.281a27.14 27.14 0 001.581 2.072c.494.587 1.002 1.16 1.543 1.702l.002.002a27.154 27.154 0 002.173 1.94c.512.414 1.037.81 1.579 1.187.101.07.197.146.299.215.535.361 1.081.707 1.642 1.031H8.367zm13.502.062A25.834 25.834 0 018.306 42.2 25.768 25.768 0 016.222 32c0-3.538.701-6.969 2.084-10.199A25.836 25.836 0 0121.869 8.194a25.696 25.696 0 0110.242-2.111c3.553 0 6.998.71 10.242 2.111A25.838 25.838 0 0155.916 21.8 25.769 25.769 0 0158.001 32c0 3.536-.701 6.968-2.085 10.199a25.828 25.828 0 01-13.563 13.606 25.693 25.693 0 01-10.242 2.111 25.679 25.679 0 01-10.242-2.11zm33.986-.062H45.813c.562-.324 1.108-.67 1.642-1.031.103-.069.2-.146.302-.216a27.52 27.52 0 001.571-1.181c.163-.132.325-.263.484-.398a27.704 27.704 0 001.69-1.541l.035-.038a26.998 26.998 0 001.907-2.152c.412-.513.807-1.04 1.182-1.583.068-.098.141-.192.208-.292.357-.532.699-1.076 1.02-1.635v10.067z"
            ></path>
            <path
                d="M46.934 26.287c-1.107 0-2.004.885-2.004 1.976 0 .31.079.599.208.861l-6.74 4.691-.387-8.422c1.064-.048 1.914-.906 1.914-1.967 0-1.091-.898-1.976-2.005-1.976-1.107 0-2.004.885-2.004 1.976 0 .732.408 1.364 1.008 1.705l-4.812 8.237-4.812-8.237a1.962 1.962 0 001.008-1.705c0-1.091-.897-1.976-2.004-1.976s-2.004.885-2.004 1.976c0 1.061.85 1.919 1.914 1.967l-.387 8.422-6.74-4.691c.129-.261.208-.551.208-.861 0-1.092-.897-1.976-2.005-1.976-1.107 0-2.004.885-2.004 1.976s.897 1.976 2.004 1.976c.298 0 .578-.068.832-.183l5.048 13.236c2.178-.849 5.377-1.385 8.943-1.385s6.764.536 8.942 1.385l5.048-13.236c.254.115.534.183.832.183 1.107 0 2.005-.885 2.005-1.976-.001-1.091-.899-1.976-2.006-1.976z"
            ></path>
        </g>
    </defs>

    <!-- Critical Strike -->
    <defs>
        <g xmlns="http://www.w3.org/2000/svg" id="critical-strike">
            <path
                d="M57.355 42.637A27.245 27.245 0 0059.501 32c0-3.685-.724-7.262-2.146-10.637V6.756H42.794a27.168 27.168 0 00-10.683-2.172c-3.702 0-7.295.733-10.683 2.172H6.867v14.606A27.256 27.256 0 004.722 32c0 3.687.724 7.264 2.145 10.637v14.607h14.561a27.19 27.19 0 0010.683 2.173c3.701 0 7.294-.734 10.683-2.173h14.561V42.637zm-1.5-34.381v10.068a27.462 27.462 0 00-1.021-1.636c-.065-.098-.138-.19-.204-.286a27.278 27.278 0 00-1.188-1.591c-.13-.161-.26-.322-.393-.481a27.235 27.235 0 00-1.545-1.704 27.292 27.292 0 00-2.174-1.94 27.119 27.119 0 00-1.573-1.182c-.102-.071-.2-.147-.303-.217a27.755 27.755 0 00-1.642-1.031h10.043zm-47.488 0h10.042c-.562.324-1.108.67-1.643 1.032-.102.069-.199.145-.3.215-.541.376-1.066.772-1.577 1.185a27.331 27.331 0 00-2.173 1.939l-.017.018a27.115 27.115 0 00-1.919 2.164 26.908 26.908 0 00-1.19 1.593c-.066.096-.138.188-.203.285-.358.533-.7 1.077-1.021 1.636V8.256zm0 47.488V45.676c.321.56.664 1.105 1.022 1.638.064.096.135.186.2.281a27.14 27.14 0 001.581 2.072c.494.587 1.002 1.16 1.543 1.702l.002.002a27.154 27.154 0 002.173 1.94c.512.414 1.037.81 1.579 1.187.101.07.197.146.299.215.535.361 1.081.707 1.642 1.031H8.367zm13.502.062A25.834 25.834 0 018.306 42.2 25.768 25.768 0 016.222 32c0-3.538.701-6.969 2.084-10.199A25.836 25.836 0 0121.869 8.194a25.696 25.696 0 0110.242-2.111c3.553 0 6.998.71 10.242 2.111A25.838 25.838 0 0155.916 21.8 25.769 25.769 0 0158.001 32c0 3.536-.701 6.968-2.085 10.199a25.828 25.828 0 01-13.563 13.606 25.693 25.693 0 01-10.242 2.111 25.679 25.679 0 01-10.242-2.11zm33.986-.062H45.813c.562-.324 1.108-.67 1.642-1.031.103-.069.2-.146.302-.216a27.52 27.52 0 001.571-1.181c.163-.132.325-.263.484-.398a27.704 27.704 0 001.69-1.541l.035-.038a26.998 26.998 0 001.907-2.152c.412-.513.807-1.04 1.182-1.583.068-.098.141-.192.208-.292.357-.532.699-1.076 1.02-1.635v10.067z"
            ></path>
            <path
                d="M32.111 29.689a2.989 2.989 0 100 5.977 2.989 2.989 0 000-5.977z"
            ></path>
            <path
                d="M41.603 33.535l9.219-.857-9.219-.857a9.542 9.542 0 00-8.634-8.633l-.857-9.218-.857 9.218c-4.574.41-8.224 4.06-8.634 8.633l-9.219.857 9.219.857c.41 4.573 4.06 8.224 8.634 8.633l.857 9.218.857-9.218c4.573-.41 8.224-4.06 8.634-8.633zm-8.527 7.472l.215-2.313h-2.36l.215 2.313a8.399 8.399 0 01-7.365-7.364l2.313.215v-2.359l-2.313.215a8.399 8.399 0 017.365-7.364l-.215 2.313h2.36l-.215-2.313a8.399 8.399 0 017.365 7.364l-2.314-.215v2.359l2.314-.215a8.398 8.398 0 01-7.365 7.364z"
            ></path>
        </g>
    </defs>

    <!-- Haste -->
    <defs>
        <g xmlns="http://www.w3.org/2000/svg" id="haste">
            <path
                d="M57.355 42.637A27.245 27.245 0 0059.501 32c0-3.685-.724-7.262-2.146-10.637V6.756H42.794a27.168 27.168 0 00-10.683-2.172c-3.702 0-7.295.733-10.683 2.172H6.867v14.606A27.256 27.256 0 004.722 32c0 3.687.724 7.264 2.145 10.637v14.607h14.561a27.19 27.19 0 0010.683 2.173c3.701 0 7.294-.734 10.683-2.173h14.561V42.637zm-1.5-34.381v10.068a27.462 27.462 0 00-1.021-1.636c-.065-.098-.138-.19-.204-.286a27.278 27.278 0 00-1.188-1.591c-.13-.161-.26-.322-.393-.481a27.235 27.235 0 00-1.545-1.704 27.292 27.292 0 00-2.174-1.94 27.119 27.119 0 00-1.573-1.182c-.102-.071-.2-.147-.303-.217a27.755 27.755 0 00-1.642-1.031h10.043zm-47.488 0h10.042c-.562.324-1.108.67-1.643 1.032-.102.069-.199.145-.3.215-.541.376-1.066.772-1.577 1.185a27.331 27.331 0 00-2.173 1.939l-.017.018a27.115 27.115 0 00-1.919 2.164 26.908 26.908 0 00-1.19 1.593c-.066.096-.138.188-.203.285-.358.533-.7 1.077-1.021 1.636V8.256zm0 47.488V45.676c.321.56.664 1.105 1.022 1.638.064.096.135.186.2.281a27.14 27.14 0 001.581 2.072c.494.587 1.002 1.16 1.543 1.702l.002.002a27.154 27.154 0 002.173 1.94c.512.414 1.037.81 1.579 1.187.101.07.197.146.299.215.535.361 1.081.707 1.642 1.031H8.367zm13.502.062A25.834 25.834 0 018.306 42.2 25.768 25.768 0 016.222 32c0-3.538.701-6.969 2.084-10.199A25.836 25.836 0 0121.869 8.194a25.696 25.696 0 0110.242-2.111c3.553 0 6.998.71 10.242 2.111A25.838 25.838 0 0155.916 21.8 25.769 25.769 0 0158.001 32c0 3.536-.701 6.968-2.085 10.199a25.828 25.828 0 01-13.563 13.606 25.693 25.693 0 01-10.242 2.111 25.679 25.679 0 01-10.242-2.11zm33.986-.062H45.813c.562-.324 1.108-.67 1.642-1.031.103-.069.2-.146.302-.216a27.52 27.52 0 001.571-1.181c.163-.132.325-.263.484-.398a27.704 27.704 0 001.69-1.541l.035-.038a26.998 26.998 0 001.907-2.152c.412-.513.807-1.04 1.182-1.583.068-.098.141-.192.208-.292.357-.532.699-1.076 1.02-1.635v10.067z"
            ></path>
            <path
                d="M33.446 23.135c-.89 0-1.612.722-1.612 1.612v8.049l-4.079 4.078a1.611 1.611 0 102.28 2.28l4.551-4.55c.302-.302.472-.712.472-1.14v-8.716a1.61 1.61 0 00-1.612-1.613zm-1.335-6.467c-8.509 0-15.431 6.92-15.431 15.427 0 8.506 6.922 15.426 15.431 15.426s15.431-6.92 15.431-15.426c0-8.507-6.922-15.427-15.431-15.427zM19.179 38.606a14.322 14.322 0 01-1.545-6.511c0-7.981 6.495-14.473 14.477-14.473v2.097c-6.826 0-12.379 5.552-12.379 12.376 0 1.959.444 3.831 1.32 5.566l-1.873.945zm12.932 4.91c-6.3 0-11.426-5.124-11.426-11.422 0-6.298 5.126-11.422 11.426-11.422s11.426 5.124 11.426 11.422c0 6.298-5.126 11.422-11.426 11.422z"
            ></path>
        </g>
    </defs>

    <!-- Versatility -->
    <defs>
        <g xmlns="http://www.w3.org/2000/svg" id="versatility">
            <path
                d="M57.355 42.637A27.245 27.245 0 0059.501 32c0-3.685-.724-7.262-2.146-10.637V6.756H42.794a27.168 27.168 0 00-10.683-2.172c-3.702 0-7.295.733-10.683 2.172H6.867v14.606A27.256 27.256 0 004.722 32c0 3.687.724 7.264 2.145 10.637v14.607h14.561a27.19 27.19 0 0010.683 2.173c3.701 0 7.294-.734 10.683-2.173h14.561V42.637zm-1.5-34.381v10.068a27.462 27.462 0 00-1.021-1.636c-.065-.098-.138-.19-.204-.286a27.278 27.278 0 00-1.188-1.591c-.13-.161-.26-.322-.393-.481a27.235 27.235 0 00-1.545-1.704 27.292 27.292 0 00-2.174-1.94 27.119 27.119 0 00-1.573-1.182c-.102-.071-.2-.147-.303-.217a27.755 27.755 0 00-1.642-1.031h10.043zm-47.488 0h10.042c-.562.324-1.108.67-1.643 1.032-.102.069-.199.145-.3.215-.541.376-1.066.772-1.577 1.185a27.331 27.331 0 00-2.173 1.939l-.017.018a27.115 27.115 0 00-1.919 2.164 26.908 26.908 0 00-1.19 1.593c-.066.096-.138.188-.203.285-.358.533-.7 1.077-1.021 1.636V8.256zm0 47.488V45.676c.321.56.664 1.105 1.022 1.638.064.096.135.186.2.281a27.14 27.14 0 001.581 2.072c.494.587 1.002 1.16 1.543 1.702l.002.002a27.154 27.154 0 002.173 1.94c.512.414 1.037.81 1.579 1.187.101.07.197.146.299.215.535.361 1.081.707 1.642 1.031H8.367zm13.502.062A25.834 25.834 0 018.306 42.2 25.768 25.768 0 016.222 32c0-3.538.701-6.969 2.084-10.199A25.836 25.836 0 0121.869 8.194a25.696 25.696 0 0110.242-2.111c3.553 0 6.998.71 10.242 2.111A25.838 25.838 0 0155.916 21.8 25.769 25.769 0 0158.001 32c0 3.536-.701 6.968-2.085 10.199a25.828 25.828 0 01-13.563 13.606 25.693 25.693 0 01-10.242 2.111 25.679 25.679 0 01-10.242-2.11zm33.986-.062H45.813c.562-.324 1.108-.67 1.642-1.031.103-.069.2-.146.302-.216a27.52 27.52 0 001.571-1.181c.163-.132.325-.263.484-.398a27.704 27.704 0 001.69-1.541l.035-.038a26.998 26.998 0 001.907-2.152c.412-.513.807-1.04 1.182-1.583.068-.098.141-.192.208-.292.357-.532.699-1.076 1.02-1.635v10.067z"
            ></path>
            <path
                d="M40.128 30.517l3.792 1.018 4.647-4.652-.674-2.517-3.432 3.436-3.833-1.028-1.027-3.839 3.431-3.436-2.513-.674-4.646 4.652 1.016 3.798-2.898 2.902-6.569-6.577 1.893-1.895 4.978-2.562-7.639-.103-1.893 1.895-.721-.722-2.975 2.979.721.722-2.118 2.121-1.758.496-2.254 2.257 3.957 3.961 2.253-2.256.496-1.76-.033-.033 2.119-2.121 6.568 6.576-2.786 2.79-3.793-1.018-4.646 4.652.674 2.517 3.431-3.436 3.834 1.029 1.027 3.838-3.432 3.436 2.513.674 4.647-4.652-1.017-3.798 2.786-2.789 8.621 8.632 2.975-2.979-8.621-8.632z"
            ></path>
        </g>
    </defs>

    <!-- Stamina -->
    <defs>
        <g xmlns="http://www.w3.org/2000/svg" id="stamina">
            <path
                d="M57.355 42.637A27.245 27.245 0 0059.501 32c0-3.685-.724-7.262-2.146-10.637V6.756H42.794a27.168 27.168 0 00-10.683-2.172c-3.702 0-7.295.733-10.683 2.172H6.867v14.606A27.256 27.256 0 004.722 32c0 3.687.724 7.264 2.145 10.637v14.607h14.561a27.19 27.19 0 0010.683 2.173c3.701 0 7.294-.734 10.683-2.173h14.561V42.637zm-1.5-34.381v10.068a27.462 27.462 0 00-1.021-1.636c-.065-.098-.138-.19-.204-.286a27.278 27.278 0 00-1.188-1.591c-.13-.161-.26-.322-.393-.481a27.235 27.235 0 00-1.545-1.704 27.292 27.292 0 00-2.174-1.94 27.119 27.119 0 00-1.573-1.182c-.102-.071-.2-.147-.303-.217a27.755 27.755 0 00-1.642-1.031h10.043zm-47.488 0h10.042c-.562.324-1.108.67-1.643 1.032-.102.069-.199.145-.3.215-.541.376-1.066.772-1.577 1.185a27.331 27.331 0 00-2.173 1.939l-.017.018a27.115 27.115 0 00-1.919 2.164 26.908 26.908 0 00-1.19 1.593c-.066.096-.138.188-.203.285-.358.533-.7 1.077-1.021 1.636V8.256zm0 47.488V45.676c.321.56.664 1.105 1.022 1.638.064.096.135.186.2.281a27.14 27.14 0 001.581 2.072c.494.587 1.002 1.16 1.543 1.702l.002.002a27.154 27.154 0 002.173 1.94c.512.414 1.037.81 1.579 1.187.101.07.197.146.299.215.535.361 1.081.707 1.642 1.031H8.367zm13.502.062A25.834 25.834 0 018.306 42.2 25.768 25.768 0 016.222 32c0-3.538.701-6.969 2.084-10.199A25.836 25.836 0 0121.869 8.194a25.696 25.696 0 0110.242-2.111c3.553 0 6.998.71 10.242 2.111A25.838 25.838 0 0155.916 21.8 25.769 25.769 0 0158.001 32c0 3.536-.701 6.968-2.085 10.199a25.828 25.828 0 01-13.563 13.606 25.693 25.693 0 01-10.242 2.111 25.679 25.679 0 01-10.242-2.11zm33.986-.062H45.813c.562-.324 1.108-.67 1.642-1.031.103-.069.2-.146.302-.216a27.52 27.52 0 001.571-1.181c.163-.132.325-.263.484-.398a27.704 27.704 0 001.69-1.541l.035-.038a26.998 26.998 0 001.907-2.152c.412-.513.807-1.04 1.182-1.583.068-.098.141-.192.208-.292.357-.532.699-1.076 1.02-1.635v10.067z"
            ></path>
            <path
                d="M37.832 31.246h-4.29v-4.259h-2.861v4.259h-4.254v2.864h4.254v4.259h2.861V34.11h4.29z"
            ></path>
            <path
                d="M32.111 15.676L15.129 32.678 32.111 49.68l16.983-17.002-16.983-17.002zM19.169 32.678l12.943-12.957 12.943 12.957-12.944 12.958-12.942-12.958z"
            ></path>
        </g>
    </defs>

    <!-- Health -->
    <defs>
        <g xmlns="http://www.w3.org/2000/svg" id="health">
            <path
                d="M32.105 26.297c-3.863-9.098-14.842-6.841-14.914 3.719-.04 5.799 3.176 8.808 14.937 16.919 10.688-7.172 14.945-11.183 14.905-16.982-.073-10.586-11.244-12.391-14.928-3.656z"
            ></path>
            <path
                d="M57.355 42.637A27.245 27.245 0 0059.501 32c0-3.685-.724-7.262-2.146-10.637V6.756H42.794a27.168 27.168 0 00-10.683-2.172c-3.702 0-7.295.733-10.683 2.172H6.867v14.606A27.256 27.256 0 004.722 32c0 3.687.724 7.264 2.145 10.637v14.607h14.561a27.19 27.19 0 0010.683 2.173c3.701 0 7.294-.734 10.683-2.173h14.561V42.637zm-1.5-34.381v10.068a27.462 27.462 0 00-1.021-1.636c-.065-.098-.138-.19-.204-.286a27.278 27.278 0 00-1.188-1.591c-.13-.161-.26-.322-.393-.481a27.235 27.235 0 00-1.545-1.704 27.292 27.292 0 00-2.174-1.94 27.119 27.119 0 00-1.573-1.182c-.102-.071-.2-.147-.303-.217a27.755 27.755 0 00-1.642-1.031h10.043zm-47.488 0h10.042c-.562.324-1.108.67-1.643 1.032-.102.069-.199.145-.3.215-.541.376-1.066.772-1.577 1.185a27.331 27.331 0 00-2.173 1.939l-.017.018a27.115 27.115 0 00-1.919 2.164 26.908 26.908 0 00-1.19 1.593c-.066.096-.138.188-.203.285-.358.533-.7 1.077-1.021 1.636V8.256zm0 47.488V45.676c.321.56.664 1.105 1.022 1.638.064.096.135.186.2.281a27.14 27.14 0 001.581 2.072c.494.587 1.002 1.16 1.543 1.702l.002.002a27.154 27.154 0 002.173 1.94c.512.414 1.037.81 1.579 1.187.101.07.197.146.299.215.535.361 1.081.707 1.642 1.031H8.367zm13.502.062A25.834 25.834 0 018.306 42.2 25.768 25.768 0 016.222 32c0-3.538.701-6.969 2.084-10.199A25.836 25.836 0 0121.869 8.194a25.696 25.696 0 0110.242-2.111c3.553 0 6.998.71 10.242 2.111A25.838 25.838 0 0155.916 21.8 25.769 25.769 0 0158.001 32c0 3.536-.701 6.968-2.085 10.199a25.828 25.828 0 01-13.563 13.606 25.693 25.693 0 01-10.242 2.111 25.679 25.679 0 01-10.242-2.11zm33.986-.062H45.813c.562-.324 1.108-.67 1.642-1.031.103-.069.2-.146.302-.216a27.52 27.52 0 001.571-1.181c.163-.132.325-.263.484-.398a27.704 27.704 0 001.69-1.541l.035-.038a26.998 26.998 0 001.907-2.152c.412-.513.807-1.04 1.182-1.583.068-.098.141-.192.208-.292.357-.532.699-1.076 1.02-1.635v10.067z"
            ></path>
        </g>
    </defs>

    <!-- Mana -->
    <defs>
        <g xmlns="http://www.w3.org/2000/svg" id="mana">
            <path
                d="M57.355 42.637A27.245 27.245 0 0059.501 32c0-3.685-.724-7.262-2.146-10.637V6.756H42.794a27.168 27.168 0 00-10.683-2.172c-3.702 0-7.295.733-10.683 2.172H6.867v14.606A27.256 27.256 0 004.722 32c0 3.687.724 7.264 2.145 10.637v14.607h14.561a27.19 27.19 0 0010.683 2.173c3.701 0 7.294-.734 10.683-2.173h14.561V42.637zm-1.5-34.381v10.068a27.462 27.462 0 00-1.021-1.636c-.065-.098-.138-.19-.204-.286a27.278 27.278 0 00-1.188-1.591c-.13-.161-.26-.322-.393-.481a27.235 27.235 0 00-1.545-1.704 27.292 27.292 0 00-2.174-1.94 27.119 27.119 0 00-1.573-1.182c-.102-.071-.2-.147-.303-.217a27.755 27.755 0 00-1.642-1.031h10.043zm-47.488 0h10.042c-.562.324-1.108.67-1.643 1.032-.102.069-.199.145-.3.215-.541.376-1.066.772-1.577 1.185a27.331 27.331 0 00-2.173 1.939l-.017.018a27.115 27.115 0 00-1.919 2.164 26.908 26.908 0 00-1.19 1.593c-.066.096-.138.188-.203.285-.358.533-.7 1.077-1.021 1.636V8.256zm0 47.488V45.676c.321.56.664 1.105 1.022 1.638.064.096.135.186.2.281a27.14 27.14 0 001.581 2.072c.494.587 1.002 1.16 1.543 1.702l.002.002a27.154 27.154 0 002.173 1.94c.512.414 1.037.81 1.579 1.187.101.07.197.146.299.215.535.361 1.081.707 1.642 1.031H8.367zm13.502.062A25.834 25.834 0 018.306 42.2 25.768 25.768 0 016.222 32c0-3.538.701-6.969 2.084-10.199A25.836 25.836 0 0121.869 8.194a25.696 25.696 0 0110.242-2.111c3.553 0 6.998.71 10.242 2.111A25.838 25.838 0 0155.916 21.8 25.769 25.769 0 0158.001 32c0 3.536-.701 6.968-2.085 10.199a25.828 25.828 0 01-13.563 13.606 25.693 25.693 0 01-10.242 2.111 25.679 25.679 0 01-10.242-2.11zm33.986-.062H45.813c.562-.324 1.108-.67 1.642-1.031.103-.069.2-.146.302-.216a27.52 27.52 0 001.571-1.181c.163-.132.325-.263.484-.398a27.704 27.704 0 001.69-1.541l.035-.038a26.998 26.998 0 001.907-2.152c.412-.513.807-1.04 1.182-1.583.068-.098.141-.192.208-.292.357-.532.699-1.076 1.02-1.635v10.067z"
            ></path>
            <path
                d="M44.584 43.126l-7.489-11.73v-4.722h.425c1.753 0 3.335-1.432 3.335-3.29v-1.35c0-1.857-1.582-3.328-3.335-3.328H26.736c-1.753 0-3.428 1.471-3.428 3.328v1.35c0 1.857 1.674 3.29 3.428 3.29h.332v4.721l-7.442 11.731c-.26.407-.277.968-.059 1.401.218.433.652.739 1.115.739h22.892c.463 0 .874-.306 1.092-.739a1.464 1.464 0 00-.082-1.401zM29.378 32.543c.14-.219.197-.478.197-.742v-6.376c0-.734-.527-1.407-1.219-1.407h-1.62c-.371 0-.921-.241-.921-.633v-1.35c0-.393.55-.672.921-.672H37.52c.371 0 .829.28.829.672v1.35c0 .393-.458.633-.829.633h-1.619c-.692 0-1.312.673-1.312 1.407v6.376c0 .264.104.523.244.742l3.053 4.755H26.371l3.007-4.755z"
            ></path>
        </g>
    </defs>

    <!-- Energy -->
    <defs>
        <g xmlns="http://www.w3.org/2000/svg" id="energy">
            <path
                d="M57.355 42.637A27.245 27.245 0 0059.501 32c0-3.685-.724-7.262-2.146-10.637V6.756H42.794a27.168 27.168 0 00-10.683-2.172c-3.702 0-7.295.733-10.683 2.172H6.867v14.606A27.256 27.256 0 004.722 32c0 3.687.724 7.264 2.145 10.637v14.607h14.561a27.19 27.19 0 0010.683 2.173c3.701 0 7.294-.734 10.683-2.173h14.561V42.637zm-1.5-34.381v10.068a27.462 27.462 0 00-1.021-1.636c-.065-.098-.138-.19-.204-.286a27.278 27.278 0 00-1.188-1.591c-.13-.161-.26-.322-.393-.481a27.235 27.235 0 00-1.545-1.704 27.292 27.292 0 00-2.174-1.94 27.119 27.119 0 00-1.573-1.182c-.102-.071-.2-.147-.303-.217a27.755 27.755 0 00-1.642-1.031h10.043zm-47.488 0h10.042c-.562.324-1.108.67-1.643 1.032-.102.069-.199.145-.3.215-.541.376-1.066.772-1.577 1.185a27.331 27.331 0 00-2.173 1.939l-.017.018a27.115 27.115 0 00-1.919 2.164 26.908 26.908 0 00-1.19 1.593c-.066.096-.138.188-.203.285-.358.533-.7 1.077-1.021 1.636V8.256zm0 47.488V45.676c.321.56.664 1.105 1.022 1.638.064.096.135.186.2.281a27.14 27.14 0 001.581 2.072c.494.587 1.002 1.16 1.543 1.702l.002.002a27.154 27.154 0 002.173 1.94c.512.414 1.037.81 1.579 1.187.101.07.197.146.299.215.535.361 1.081.707 1.642 1.031H8.367zm13.502.062A25.834 25.834 0 018.306 42.2 25.768 25.768 0 016.222 32c0-3.538.701-6.969 2.084-10.199A25.836 25.836 0 0121.869 8.194a25.696 25.696 0 0110.242-2.111c3.553 0 6.998.71 10.242 2.111A25.838 25.838 0 0155.916 21.8 25.769 25.769 0 0158.001 32c0 3.536-.701 6.968-2.085 10.199a25.828 25.828 0 01-13.563 13.606 25.693 25.693 0 01-10.242 2.111 25.679 25.679 0 01-10.242-2.11zm33.986-.062H45.813c.562-.324 1.108-.67 1.642-1.031.103-.069.2-.146.302-.216a27.52 27.52 0 001.571-1.181c.163-.132.325-.263.484-.398a27.704 27.704 0 001.69-1.541l.035-.038a26.998 26.998 0 001.907-2.152c.412-.513.807-1.04 1.182-1.583.068-.098.141-.192.208-.292.357-.532.699-1.076 1.02-1.635v10.067z"
            ></path>
            <g fill-rule="evenodd" clip-rule="evenodd">
                <path
                    d="M31.409 23.649c3.846-.227 7.227 1.088 9.833 2.731 1.498.945 3.643 2.645 5.151 4.214.595.619 1.327 1.131 1.327 1.795 0 1.025-2.203 2.685-2.887 3.277-3.192 2.763-7.219 5.516-12.72 5.541-3.937.017-6.724-1.368-9.286-2.966a27.61 27.61 0 01-5.073-4.058c-.528-.539-1.249-1.149-1.249-1.795 0-.982 2.086-2.63 2.731-3.2 2.147-1.893 4.385-3.451 7.18-4.526 1.484-.57 3.168-.905 4.993-1.013zm-4.292 5.306c-1.205 1.767-1.364 4.867 0 6.867 1.554 2.28 5.535 3.533 8.428 1.561 1.805-1.23 3.388-4.187 2.185-7.257-.853-2.178-3.225-4.031-6.321-3.668-1.818.213-3.408 1.2-4.292 2.497z"
                ></path>
                <path
                    d="M31.565 30.516c1.667-.413 3.019.943 2.419 2.653-.278.792-1.451 1.514-2.653 1.093-.982-.344-1.446-1.653-1.092-2.653.15-.425.743-.949 1.326-1.093z"
                ></path>
            </g>
        </g>
    </defs>

    <!-- Rage -->
    <defs>
        <g xmlns="http://www.w3.org/2000/svg" id="rage">
            <path
                d="M57.355 42.637A27.245 27.245 0 0059.501 32c0-3.685-.724-7.262-2.146-10.637V6.756H42.794a27.168 27.168 0 00-10.683-2.172c-3.702 0-7.295.733-10.683 2.172H6.867v14.606A27.256 27.256 0 004.722 32c0 3.687.724 7.264 2.145 10.637v14.607h14.561a27.19 27.19 0 0010.683 2.173c3.701 0 7.294-.734 10.683-2.173h14.561V42.637zm-1.5-34.381v10.068a27.462 27.462 0 00-1.021-1.636c-.065-.098-.138-.19-.204-.286a27.278 27.278 0 00-1.188-1.591c-.13-.161-.26-.322-.393-.481a27.235 27.235 0 00-1.545-1.704 27.292 27.292 0 00-2.174-1.94 27.119 27.119 0 00-1.573-1.182c-.102-.071-.2-.147-.303-.217a27.755 27.755 0 00-1.642-1.031h10.043zm-47.488 0h10.042c-.562.324-1.108.67-1.643 1.032-.102.069-.199.145-.3.215-.541.376-1.066.772-1.577 1.185a27.331 27.331 0 00-2.173 1.939l-.017.018a27.115 27.115 0 00-1.919 2.164 26.908 26.908 0 00-1.19 1.593c-.066.096-.138.188-.203.285-.358.533-.7 1.077-1.021 1.636V8.256zm0 47.488V45.676c.321.56.664 1.105 1.022 1.638.064.096.135.186.2.281a27.14 27.14 0 001.581 2.072c.494.587 1.002 1.16 1.543 1.702l.002.002a27.154 27.154 0 002.173 1.94c.512.414 1.037.81 1.579 1.187.101.07.197.146.299.215.535.361 1.081.707 1.642 1.031H8.367zm13.502.062A25.834 25.834 0 018.306 42.2 25.768 25.768 0 016.222 32c0-3.538.701-6.969 2.084-10.199A25.836 25.836 0 0121.869 8.194a25.696 25.696 0 0110.242-2.111c3.553 0 6.998.71 10.242 2.111A25.838 25.838 0 0155.916 21.8 25.769 25.769 0 0158.001 32c0 3.536-.701 6.968-2.085 10.199a25.828 25.828 0 01-13.563 13.606 25.693 25.693 0 01-10.242 2.111 25.679 25.679 0 01-10.242-2.11zm33.986-.062H45.813c.562-.324 1.108-.67 1.642-1.031.103-.069.2-.146.302-.216a27.52 27.52 0 001.571-1.181c.163-.132.325-.263.484-.398a27.704 27.704 0 001.69-1.541l.035-.038a26.998 26.998 0 001.907-2.152c.412-.513.807-1.04 1.182-1.583.068-.098.141-.192.208-.292.357-.532.699-1.076 1.02-1.635v10.067z"
            ></path>
            <path
                d="M32.111 16.668c-8.679 0-15.747 7.069-15.747 15.747s7.034 15.747 15.747 15.747a15.726 15.726 0 0015.747-15.747c.001-8.678-7.068-15.747-15.747-15.747zm-9.434 13.501a2.182 2.182 0 01-2.191-2.191c0-.438.097-.877.341-1.217l4.042 1.217a2.184 2.184 0 01-2.192 2.191zm14.999 8.182H26.719c-.292 0-.536-.243-.487-.536.243-3.068 2.825-5.454 5.941-5.454 3.117 0 5.698 2.386 5.99 5.454 0 .292-.195.536-.487.536zm3.555-8.182a2.182 2.182 0 01-2.191-2.191l4.042-1.217c.195.341.341.779.341 1.217a2.182 2.182 0 01-2.192 2.191z"
            ></path>
        </g>
    </defs>

    <!-- Focus -->
    <defs>
        <g xmlns="http://www.w3.org/2000/svg" id="focus">
            <path
                d="M57.355 42.637A27.245 27.245 0 0059.501 32c0-3.685-.724-7.262-2.146-10.637V6.756H42.794a27.168 27.168 0 00-10.683-2.172c-3.702 0-7.295.733-10.683 2.172H6.867v14.606A27.256 27.256 0 004.722 32c0 3.687.724 7.264 2.145 10.637v14.607h14.561a27.19 27.19 0 0010.683 2.173c3.701 0 7.294-.734 10.683-2.173h14.561V42.637zm-1.5-34.381v10.068a27.462 27.462 0 00-1.021-1.636c-.065-.098-.138-.19-.204-.286a27.278 27.278 0 00-1.188-1.591c-.13-.161-.26-.322-.393-.481a27.235 27.235 0 00-1.545-1.704 27.292 27.292 0 00-2.174-1.94 27.119 27.119 0 00-1.573-1.182c-.102-.071-.2-.147-.303-.217a27.755 27.755 0 00-1.642-1.031h10.043zm-47.488 0h10.042c-.562.324-1.108.67-1.643 1.032-.102.069-.199.145-.3.215-.541.376-1.066.772-1.577 1.185a27.331 27.331 0 00-2.173 1.939l-.017.018a27.115 27.115 0 00-1.919 2.164 26.908 26.908 0 00-1.19 1.593c-.066.096-.138.188-.203.285-.358.533-.7 1.077-1.021 1.636V8.256zm0 47.488V45.676c.321.56.664 1.105 1.022 1.638.064.096.135.186.2.281a27.14 27.14 0 001.581 2.072c.494.587 1.002 1.16 1.543 1.702l.002.002a27.154 27.154 0 002.173 1.94c.512.414 1.037.81 1.579 1.187.101.07.197.146.299.215.535.361 1.081.707 1.642 1.031H8.367zm13.502.062A25.834 25.834 0 018.306 42.2 25.768 25.768 0 016.222 32c0-3.538.701-6.969 2.084-10.199A25.836 25.836 0 0121.869 8.194a25.696 25.696 0 0110.242-2.111c3.553 0 6.998.71 10.242 2.111A25.838 25.838 0 0155.916 21.8 25.769 25.769 0 0158.001 32c0 3.536-.701 6.968-2.085 10.199a25.828 25.828 0 01-13.563 13.606 25.693 25.693 0 01-10.242 2.111 25.679 25.679 0 01-10.242-2.11zm33.986-.062H45.813c.562-.324 1.108-.67 1.642-1.031.103-.069.2-.146.302-.216a27.52 27.52 0 001.571-1.181c.163-.132.325-.263.484-.398a27.704 27.704 0 001.69-1.541l.035-.038a26.998 26.998 0 001.907-2.152c.412-.513.807-1.04 1.182-1.583.068-.098.141-.192.208-.292.357-.532.699-1.076 1.02-1.635v10.067z"
            ></path>
            <g fill-rule="evenodd" clip-rule="evenodd">
                <path
                    d="M31.409 23.649c3.846-.227 7.227 1.088 9.833 2.731 1.498.945 3.643 2.645 5.151 4.214.595.619 1.327 1.131 1.327 1.795 0 1.025-2.203 2.685-2.887 3.277-3.192 2.763-7.219 5.516-12.72 5.541-3.937.017-6.724-1.368-9.286-2.966a27.61 27.61 0 01-5.073-4.058c-.528-.539-1.249-1.149-1.249-1.795 0-.982 2.086-2.63 2.731-3.2 2.147-1.893 4.385-3.451 7.18-4.526 1.484-.57 3.168-.905 4.993-1.013zm-4.292 5.306c-1.205 1.767-1.364 4.867 0 6.867 1.554 2.28 5.535 3.533 8.428 1.561 1.805-1.23 3.388-4.187 2.185-7.257-.853-2.178-3.225-4.031-6.321-3.668-1.818.213-3.408 1.2-4.292 2.497z"
                ></path>
                <path
                    d="M31.565 30.516c1.667-.413 3.019.943 2.419 2.653-.278.792-1.451 1.514-2.653 1.093-.982-.344-1.446-1.653-1.092-2.653.15-.425.743-.949 1.326-1.093z"
                ></path>
            </g>
        </g>
    </defs>

    <!-- Maelstrom -->
    <defs>
        <g xmlns="http://www.w3.org/2000/svg" id="maelstrom">
            <path
                d="M57.355 42.637A27.245 27.245 0 0059.501 32c0-3.685-.724-7.262-2.146-10.637V6.756H42.794a27.168 27.168 0 00-10.683-2.172c-3.702 0-7.295.733-10.683 2.172H6.867v14.606A27.256 27.256 0 004.722 32c0 3.687.724 7.264 2.145 10.637v14.607h14.561a27.19 27.19 0 0010.683 2.173c3.701 0 7.294-.734 10.683-2.173h14.561V42.637zm-1.5-34.381v10.068a27.462 27.462 0 00-1.021-1.636c-.065-.098-.138-.19-.204-.286a27.278 27.278 0 00-1.188-1.591c-.13-.161-.26-.322-.393-.481a27.235 27.235 0 00-1.545-1.704 27.292 27.292 0 00-2.174-1.94 27.119 27.119 0 00-1.573-1.182c-.102-.071-.2-.147-.303-.217a27.755 27.755 0 00-1.642-1.031h10.043zm-47.488 0h10.042c-.562.324-1.108.67-1.643 1.032-.102.069-.199.145-.3.215-.541.376-1.066.772-1.577 1.185a27.331 27.331 0 00-2.173 1.939l-.017.018a27.115 27.115 0 00-1.919 2.164 26.908 26.908 0 00-1.19 1.593c-.066.096-.138.188-.203.285-.358.533-.7 1.077-1.021 1.636V8.256zm0 47.488V45.676c.321.56.664 1.105 1.022 1.638.064.096.135.186.2.281a27.14 27.14 0 001.581 2.072c.494.587 1.002 1.16 1.543 1.702l.002.002a27.154 27.154 0 002.173 1.94c.512.414 1.037.81 1.579 1.187.101.07.197.146.299.215.535.361 1.081.707 1.642 1.031H8.367zm13.502.062A25.834 25.834 0 018.306 42.2 25.768 25.768 0 016.222 32c0-3.538.701-6.969 2.084-10.199A25.836 25.836 0 0121.869 8.194a25.696 25.696 0 0110.242-2.111c3.553 0 6.998.71 10.242 2.111A25.838 25.838 0 0155.916 21.8 25.769 25.769 0 0158.001 32c0 3.536-.701 6.968-2.085 10.199a25.828 25.828 0 01-13.563 13.606 25.693 25.693 0 01-10.242 2.111 25.679 25.679 0 01-10.242-2.11zm33.986-.062H45.813c.562-.324 1.108-.67 1.642-1.031.103-.069.2-.146.302-.216a27.52 27.52 0 001.571-1.181c.163-.132.325-.263.484-.398a27.704 27.704 0 001.69-1.541l.035-.038a26.998 26.998 0 001.907-2.152c.412-.513.807-1.04 1.182-1.583.068-.098.141-.192.208-.292.357-.532.699-1.076 1.02-1.635v10.067z"
            ></path>
            <path
                d="M41.172 17.971l-7.614 10.431h7.31L23.507 47.94l5.787-13.222H23.05l6.7-16.747h11.422z"
                fill-rule="evenodd"
                clip-rule="evenodd"
            ></path>
        </g>
    </defs>

    <!-- Insanity -->
    <defs>
        <g xmlns="http://www.w3.org/2000/svg" id="insanity">
            <path
                d="M57.355 42.637A27.245 27.245 0 0059.501 32c0-3.685-.724-7.262-2.146-10.637V6.756H42.794a27.168 27.168 0 00-10.683-2.172c-3.702 0-7.295.733-10.683 2.172H6.867v14.606A27.256 27.256 0 004.722 32c0 3.687.724 7.264 2.145 10.637v14.607h14.561a27.19 27.19 0 0010.683 2.173c3.701 0 7.294-.734 10.683-2.173h14.561V42.637zm-1.5-34.381v10.068a27.462 27.462 0 00-1.021-1.636c-.065-.098-.138-.19-.204-.286a27.278 27.278 0 00-1.188-1.591c-.13-.161-.26-.322-.393-.481a27.235 27.235 0 00-1.545-1.704 27.292 27.292 0 00-2.174-1.94 27.119 27.119 0 00-1.573-1.182c-.102-.071-.2-.147-.303-.217a27.755 27.755 0 00-1.642-1.031h10.043zm-47.488 0h10.042c-.562.324-1.108.67-1.643 1.032-.102.069-.199.145-.3.215-.541.376-1.066.772-1.577 1.185a27.331 27.331 0 00-2.173 1.939l-.017.018a27.115 27.115 0 00-1.919 2.164 26.908 26.908 0 00-1.19 1.593c-.066.096-.138.188-.203.285-.358.533-.7 1.077-1.021 1.636V8.256zm0 47.488V45.676c.321.56.664 1.105 1.022 1.638.064.096.135.186.2.281a27.14 27.14 0 001.581 2.072c.494.587 1.002 1.16 1.543 1.702l.002.002a27.154 27.154 0 002.173 1.94c.512.414 1.037.81 1.579 1.187.101.07.197.146.299.215.535.361 1.081.707 1.642 1.031H8.367zm13.502.062A25.834 25.834 0 018.306 42.2 25.768 25.768 0 016.222 32c0-3.538.701-6.969 2.084-10.199A25.836 25.836 0 0121.869 8.194a25.696 25.696 0 0110.242-2.111c3.553 0 6.998.71 10.242 2.111A25.838 25.838 0 0155.916 21.8 25.769 25.769 0 0158.001 32c0 3.536-.701 6.968-2.085 10.199a25.828 25.828 0 01-13.563 13.606 25.693 25.693 0 01-10.242 2.111 25.679 25.679 0 01-10.242-2.11zm33.986-.062H45.813c.562-.324 1.108-.67 1.642-1.031.103-.069.2-.146.302-.216a27.52 27.52 0 001.571-1.181c.163-.132.325-.263.484-.398a27.704 27.704 0 001.69-1.541l.035-.038a26.998 26.998 0 001.907-2.152c.412-.513.807-1.04 1.182-1.583.068-.098.141-.192.208-.292.357-.532.699-1.076 1.02-1.635v10.067z"
            ></path>
            <path
                d="M31.409 23.649c3.846-.227 7.227 1.088 9.833 2.731 1.498.945 3.643 2.645 5.151 4.214.595.619 1.327 1.131 1.327 1.795 0 1.025-2.203 2.685-2.887 3.277-3.192 2.763-7.219 5.516-12.72 5.541-3.937.017-6.724-1.368-9.286-2.966a27.61 27.61 0 01-5.073-4.058c-.528-.539-1.249-1.149-1.249-1.795 0-.982 2.086-2.63 2.731-3.2 2.147-1.893 4.385-3.451 7.18-4.526 1.484-.57 3.168-.905 4.993-1.013zm-4.292 5.306c-1.205 1.767-1.364 4.867 0 6.867 1.554 2.28 5.535 3.533 8.428 1.561 1.805-1.23 3.388-4.187 2.185-7.257-.853-2.178-3.225-4.031-6.321-3.668-1.818.213-3.408 1.2-4.292 2.497z"
                fill-rule="evenodd"
                clip-rule="evenodd"
            ></path>
            <path
                d="M32.057 34.817c-.292 0-.585-.05-.868-.149-.524-.183-.96-.592-1.228-1.151-.307-.642-.355-1.409-.128-2.052.205-.583.936-1.196 1.629-1.367.963-.239 1.897.016 2.503.681.594.653.753 1.6.426 2.532-.178.51-.628.977-1.202 1.248a2.64 2.64 0 01-1.132.258zm.104-3.944c-.16 0-.325.02-.492.061-.447.111-.925.538-1.024.818-.153.432-.118.953.093 1.393.168.351.429.603.736.711.441.154.919.129 1.346-.074.365-.173.655-.463.758-.755.224-.639.133-1.247-.251-1.668-.288-.317-.704-.486-1.166-.486z"
            ></path>
        </g>
    </defs>

    <!-- Runic Power -->
    <defs>
        <g xmlns="http://www.w3.org/2000/svg" id="runic-power">
            <path
                d="M57.355 42.637A27.245 27.245 0 0059.501 32c0-3.685-.724-7.262-2.146-10.637V6.756H42.794a27.168 27.168 0 00-10.683-2.172c-3.702 0-7.295.733-10.683 2.172H6.867v14.606A27.256 27.256 0 004.722 32c0 3.687.724 7.264 2.145 10.637v14.607h14.561a27.19 27.19 0 0010.683 2.173c3.701 0 7.294-.734 10.683-2.173h14.561V42.637zm-1.5-34.381v10.068a27.462 27.462 0 00-1.021-1.636c-.065-.098-.138-.19-.204-.286a27.278 27.278 0 00-1.188-1.591c-.13-.161-.26-.322-.393-.481a27.235 27.235 0 00-1.545-1.704 27.292 27.292 0 00-2.174-1.94 27.119 27.119 0 00-1.573-1.182c-.102-.071-.2-.147-.303-.217a27.755 27.755 0 00-1.642-1.031h10.043zm-47.488 0h10.042c-.562.324-1.108.67-1.643 1.032-.102.069-.199.145-.3.215-.541.376-1.066.772-1.577 1.185a27.331 27.331 0 00-2.173 1.939l-.017.018a27.115 27.115 0 00-1.919 2.164 26.908 26.908 0 00-1.19 1.593c-.066.096-.138.188-.203.285-.358.533-.7 1.077-1.021 1.636V8.256zm0 47.488V45.676c.321.56.664 1.105 1.022 1.638.064.096.135.186.2.281a27.14 27.14 0 001.581 2.072c.494.587 1.002 1.16 1.543 1.702l.002.002a27.154 27.154 0 002.173 1.94c.512.414 1.037.81 1.579 1.187.101.07.197.146.299.215.535.361 1.081.707 1.642 1.031H8.367zm13.502.062A25.834 25.834 0 018.306 42.2 25.768 25.768 0 016.222 32c0-3.538.701-6.969 2.084-10.199A25.836 25.836 0 0121.869 8.194a25.696 25.696 0 0110.242-2.111c3.553 0 6.998.71 10.242 2.111A25.838 25.838 0 0155.916 21.8 25.769 25.769 0 0158.001 32c0 3.536-.701 6.968-2.085 10.199a25.828 25.828 0 01-13.563 13.606 25.693 25.693 0 01-10.242 2.111 25.679 25.679 0 01-10.242-2.11zm33.986-.062H45.813c.562-.324 1.108-.67 1.642-1.031.103-.069.2-.146.302-.216a27.52 27.52 0 001.571-1.181c.163-.132.325-.263.484-.398a27.704 27.704 0 001.69-1.541l.035-.038a26.998 26.998 0 001.907-2.152c.412-.513.807-1.04 1.182-1.583.068-.098.141-.192.208-.292.357-.532.699-1.076 1.02-1.635v10.067z"
            ></path>
            <path
                d="M25.176 18.471v12.816l-5.387-4.714v6.023l5.387 4.714v9.412h5.217V18.471zM39.047 46.722V33.906l5.387 4.714v-6.024l-5.387-4.713v-9.412h-5.218v28.251z"
            ></path>
        </g>
    </defs>

    <!-- Fury -->
    <defs>
        <g xmlns="http://www.w3.org/2000/svg" id="fury">
            <path
                d="M57.355 42.637A27.245 27.245 0 0059.501 32c0-3.685-.724-7.262-2.146-10.637V6.756H42.794a27.168 27.168 0 00-10.683-2.172c-3.702 0-7.295.733-10.683 2.172H6.867v14.606A27.256 27.256 0 004.722 32c0 3.687.724 7.264 2.145 10.637v14.607h14.561a27.19 27.19 0 0010.683 2.173c3.701 0 7.294-.734 10.683-2.173h14.561V42.637zm-1.5-34.381v10.068a27.462 27.462 0 00-1.021-1.636c-.065-.098-.138-.19-.204-.286a27.278 27.278 0 00-1.188-1.591c-.13-.161-.26-.322-.393-.481a27.235 27.235 0 00-1.545-1.704 27.292 27.292 0 00-2.174-1.94 27.119 27.119 0 00-1.573-1.182c-.102-.071-.2-.147-.303-.217a27.755 27.755 0 00-1.642-1.031h10.043zm-47.488 0h10.042c-.562.324-1.108.67-1.643 1.032-.102.069-.199.145-.3.215-.541.376-1.066.772-1.577 1.185a27.331 27.331 0 00-2.173 1.939l-.017.018a27.115 27.115 0 00-1.919 2.164 26.908 26.908 0 00-1.19 1.593c-.066.096-.138.188-.203.285-.358.533-.7 1.077-1.021 1.636V8.256zm0 47.488V45.676c.321.56.664 1.105 1.022 1.638.064.096.135.186.2.281a27.14 27.14 0 001.581 2.072c.494.587 1.002 1.16 1.543 1.702l.002.002a27.154 27.154 0 002.173 1.94c.512.414 1.037.81 1.579 1.187.101.07.197.146.299.215.535.361 1.081.707 1.642 1.031H8.367zm13.502.062A25.834 25.834 0 018.306 42.2 25.768 25.768 0 016.222 32c0-3.538.701-6.969 2.084-10.199A25.836 25.836 0 0121.869 8.194a25.696 25.696 0 0110.242-2.111c3.553 0 6.998.71 10.242 2.111A25.838 25.838 0 0155.916 21.8 25.769 25.769 0 0158.001 32c0 3.536-.701 6.968-2.085 10.199a25.828 25.828 0 01-13.563 13.606 25.693 25.693 0 01-10.242 2.111 25.679 25.679 0 01-10.242-2.11zm33.986-.062H45.813c.562-.324 1.108-.67 1.642-1.031.103-.069.2-.146.302-.216a27.52 27.52 0 001.571-1.181c.163-.132.325-.263.484-.398a27.704 27.704 0 001.69-1.541l.035-.038a26.998 26.998 0 001.907-2.152c.412-.513.807-1.04 1.182-1.583.068-.098.141-.192.208-.292.357-.532.699-1.076 1.02-1.635v10.067z"
            ></path>
            <path
                d="M32.111 16.668c-8.679 0-15.747 7.069-15.747 15.747s7.034 15.747 15.747 15.747a15.726 15.726 0 0015.747-15.747c.001-8.678-7.068-15.747-15.747-15.747zm-9.434 13.501a2.182 2.182 0 01-2.191-2.191c0-.438.097-.877.341-1.217l4.042 1.217a2.184 2.184 0 01-2.192 2.191zm14.999 8.182H26.719c-.292 0-.536-.243-.487-.536.243-3.068 2.825-5.454 5.941-5.454 3.117 0 5.698 2.386 5.99 5.454 0 .292-.195.536-.487.536zm3.555-8.182a2.182 2.182 0 01-2.191-2.191l4.042-1.217c.195.341.341.779.341 1.217a2.182 2.182 0 01-2.192 2.191z"
            ></path>
        </g>
    </defs>

    <!-- Pain -->
    <defs>
        <g xmlns="http://www.w3.org/2000/svg" id="pain">
            <path
                d="M57.355 42.637A27.245 27.245 0 0059.501 32c0-3.685-.724-7.262-2.146-10.637V6.756H42.794a27.168 27.168 0 00-10.683-2.172c-3.702 0-7.295.733-10.683 2.172H6.867v14.606A27.256 27.256 0 004.722 32c0 3.687.724 7.264 2.145 10.637v14.607h14.561a27.19 27.19 0 0010.683 2.173c3.701 0 7.294-.734 10.683-2.173h14.561V42.637zm-1.5-34.381v10.068a27.462 27.462 0 00-1.021-1.636c-.065-.098-.138-.19-.204-.286a27.278 27.278 0 00-1.188-1.591c-.13-.161-.26-.322-.393-.481a27.235 27.235 0 00-1.545-1.704 27.292 27.292 0 00-2.174-1.94 27.119 27.119 0 00-1.573-1.182c-.102-.071-.2-.147-.303-.217a27.755 27.755 0 00-1.642-1.031h10.043zm-47.488 0h10.042c-.562.324-1.108.67-1.643 1.032-.102.069-.199.145-.3.215-.541.376-1.066.772-1.577 1.185a27.331 27.331 0 00-2.173 1.939l-.017.018a27.115 27.115 0 00-1.919 2.164 26.908 26.908 0 00-1.19 1.593c-.066.096-.138.188-.203.285-.358.533-.7 1.077-1.021 1.636V8.256zm0 47.488V45.676c.321.56.664 1.105 1.022 1.638.064.096.135.186.2.281a27.14 27.14 0 001.581 2.072c.494.587 1.002 1.16 1.543 1.702l.002.002a27.154 27.154 0 002.173 1.94c.512.414 1.037.81 1.579 1.187.101.07.197.146.299.215.535.361 1.081.707 1.642 1.031H8.367zm13.502.062A25.834 25.834 0 018.306 42.2 25.768 25.768 0 016.222 32c0-3.538.701-6.969 2.084-10.199A25.836 25.836 0 0121.869 8.194a25.696 25.696 0 0110.242-2.111c3.553 0 6.998.71 10.242 2.111A25.838 25.838 0 0155.916 21.8 25.769 25.769 0 0158.001 32c0 3.536-.701 6.968-2.085 10.199a25.828 25.828 0 01-13.563 13.606 25.693 25.693 0 01-10.242 2.111 25.679 25.679 0 01-10.242-2.11zm33.986-.062H45.813c.562-.324 1.108-.67 1.642-1.031.103-.069.2-.146.302-.216a27.52 27.52 0 001.571-1.181c.163-.132.325-.263.484-.398a27.704 27.704 0 001.69-1.541l.035-.038a26.998 26.998 0 001.907-2.152c.412-.513.807-1.04 1.182-1.583.068-.098.141-.192.208-.292.357-.532.699-1.076 1.02-1.635v10.067z"
            ></path>
            <path
                d="M32.111 16.668c-8.679 0-15.747 7.069-15.747 15.747s7.034 15.747 15.747 15.747a15.726 15.726 0 0015.747-15.747c.001-8.678-7.068-15.747-15.747-15.747zm-9.434 13.501a2.182 2.182 0 01-2.191-2.191c0-.438.097-.877.341-1.217l4.042 1.217a2.184 2.184 0 01-2.192 2.191zm14.999 8.182H26.719c-.292 0-.536-.243-.487-.536.243-3.068 2.825-5.454 5.941-5.454 3.117 0 5.698 2.386 5.99 5.454 0 .292-.195.536-.487.536zm3.555-8.182a2.182 2.182 0 01-2.191-2.191l4.042-1.217c.195.341.341.779.341 1.217a2.182 2.182 0 01-2.192 2.191z"
            ></path>
        </g>
    </defs>
</svg>
